<svg xmlns="http://www.w3.org/2000/svg" viewBox="0 0 128 128"><defs><style>.cls-1{fill:#4a2335;}</style></defs><title>japan-roll</title><g id="icons"><path class="cls-1" d="M12,74.4v-26C12,37,26.14,27.6,43.2,27.6c17.26,0,31.2,9.36,31.2,20.8v26c0,11.44-13.94,20.8-31.2,20.8C26.14,95.2,12,85.84,12,74.4Zm91.11,27.46-88.3,6.55-.1-2.81,88.09-8.94A3,3,0,0,1,105.6,99,2.61,2.61,0,0,1,103.11,101.86ZM17.2,48.4C17.2,57,29,64,43.2,64s26-7,26-15.6-11.75-15.6-26-15.6S17.2,39.77,17.2,48.4Zm96.31,62.4a2.6,2.6,0,0,1,2.5,2.5,2.46,2.46,0,0,1-2.5,2.7l-88.4-1v-2.81ZM43.2,58.8c-8.63,0-15.6-4.78-15.6-10.4H43.2Zm0-15.6H30c2.5-3.12,7.59-5.2,13.21-5.2,1.77,0,3.12.31,4.78.42Zm5.2,15V48.4l5.2-5.2V40.81c3.12,1.77,5.2,4.47,5.2,7.59C58.8,53,54.33,56.72,48.4,58.18ZM116,32.8v26c0,11.44-13.94,20.8-31.2,20.8a29.14,29.14,0,0,1-5.2-.31V53.6a24.63,24.63,0,0,0-.42-5.51,35.88,35.88,0,0,0,5.62.31c14.25,0,26-7,26-15.6S99,17.2,84.8,17.2c-10.09,0-18.72,3.54-23.19,8.63a21.91,21.91,0,0,0-5.2-1.66C61.61,16.89,72.32,12,84.8,12,102.07,12,116,21.36,116,32.8ZM84.8,27.6H71.59c2.5-3.12,7.59-5.2,13.21-5.2,1.77,0,3.12.31,4.78.42Zm0,15.6a35,35,0,0,1-7-1A26.54,26.54,0,0,0,72,32.8H84.8Zm10.4-18c3.12,1.77,5.2,4.47,5.2,7.59,0,4.58-4.47,8.32-10.4,9.78V32.8l5.2-5.2Z"/></g></svg>