<svg width="128" height="128" viewBox="0 0 128 128" fill="none" xmlns="http://www.w3.org/2000/svg">
<path d="M104.114 53.807C106.16 54.966 107.523 56.7385 107.523 58.7838C107.523 61.7834 104.592 64.2377 100.706 65.1921V58.7838L104.114 55.375V53.807ZM97.297 65.6012C95.6608 65.6012 94.0928 65.1922 92.7294 64.9195C91.8424 62.4652 90.4789 60.4199 88.9116 58.7838H97.297V65.6012ZM97.297 55.375H88.6389C90.2751 53.3292 93.615 51.9657 97.297 51.9657C98.456 51.9657 99.3423 52.1708 100.433 52.2384L97.297 55.375ZM117.75 58.7838V75.828C117.75 83.3272 108.614 89.4635 97.297 89.4635C96.1374 89.4635 95.0466 89.4635 93.8877 89.259V72.4193C93.8877 71.2603 93.8877 69.9644 93.615 68.806C94.9785 69.0099 96.1374 69.0099 97.297 69.0099C106.638 69.0099 114.341 64.4429 114.341 58.7838C114.341 53.1246 106.638 48.5569 97.297 48.5569C90.6835 48.5569 85.025 50.8749 82.0935 54.2154C81.1384 53.807 79.9801 53.3292 78.6841 53.1246C82.0935 48.3531 89.1155 45.1482 97.297 45.1482C108.614 45.1482 117.75 51.2839 117.75 58.7838ZM73.4347 75.419V69.0099L76.8434 65.6012V64.0332C78.8893 65.1921 80.2528 66.9647 80.2528 69.0099C80.2528 72.0102 77.3206 74.4645 73.4347 75.419ZM70.026 65.6012H61.3678C63.004 63.556 66.3446 62.1925 70.026 62.1925C71.1856 62.1925 72.0712 62.397 73.162 62.4652L70.026 65.6012ZM70.026 75.828C64.3675 75.828 59.7992 72.692 59.7992 69.0099H70.026V75.828ZM52.9817 69.0099C52.9817 74.6684 60.6854 79.2367 70.026 79.2367C79.3665 79.2367 87.0702 74.6684 87.0702 69.0099C87.0702 63.3521 79.3665 58.7838 70.026 58.7838C60.6854 58.7838 52.9817 63.3521 52.9817 69.0099ZM49.573 86.0542V69.0099C49.573 61.5107 58.8447 55.375 70.026 55.375C81.3436 55.375 90.4789 61.5107 90.4789 69.0099V86.0542C90.4789 93.554 81.3436 99.6897 70.026 99.6897C58.8447 99.6897 49.573 93.554 49.573 86.0542Z" fill="#4A2335"/>
<path d="M64.2915 18.4088C66.3367 19.5678 67.7002 21.3403 67.7002 23.3855C67.7002 26.3852 64.7687 28.8395 60.8827 29.7939V23.3855L64.2915 19.9768V18.4088ZM57.474 30.203C55.8378 30.203 54.2698 29.7939 52.9063 29.5212C52.0194 27.0669 50.6559 25.0217 49.0886 23.3855H57.474V30.203ZM57.474 19.9768H48.8159C50.4521 17.9309 53.792 16.5674 57.474 16.5674C58.633 16.5674 59.5193 16.7726 60.61 16.8401L57.474 19.9768ZM77.927 23.3855V40.4298C77.927 47.929 68.791 54.0653 57.474 54.0653C56.3144 54.0653 55.2236 54.0653 54.0647 53.8608V37.0211C54.0647 35.8621 54.0647 34.5661 53.792 33.4078C55.1554 33.6117 56.3144 33.6117 57.474 33.6117C66.8146 33.6117 74.5183 29.0447 74.5183 23.3855C74.5183 17.7264 66.8146 13.1587 57.474 13.1587C50.8605 13.1587 45.202 15.4766 42.2705 18.8172C41.3154 18.4088 40.1571 17.9309 38.8611 17.7264C42.2705 12.9548 49.2924 9.75 57.474 9.75C68.791 9.75 77.927 15.8857 77.927 23.3855ZM33.6117 40.0207V33.6117L37.0204 30.203V28.6349C39.0663 29.7939 40.4298 31.5665 40.4298 33.6117C40.4298 36.612 37.4976 39.0663 33.6117 40.0207ZM30.203 30.203H21.5448C23.181 28.1577 26.5216 26.7942 30.203 26.7942C31.3626 26.7942 32.2482 26.9988 33.339 27.0669L30.203 30.203ZM30.203 40.4298C24.5445 40.4298 19.9762 37.2938 19.9762 33.6117H30.203V40.4298ZM13.1587 33.6117C13.1587 39.2702 20.8624 43.8385 30.203 43.8385C39.5435 43.8385 47.2472 39.2702 47.2472 33.6117C47.2472 27.9539 39.5435 23.3855 30.203 23.3855C20.8624 23.3855 13.1587 27.9539 13.1587 33.6117ZM9.75 50.6559V33.6117C9.75 26.1125 19.0217 19.9768 30.203 19.9768C41.5206 19.9768 50.6559 26.1125 50.6559 33.6117V50.6559C50.6559 58.1558 41.5206 64.2915 30.203 64.2915C19.0217 64.2915 9.75 58.1558 9.75 50.6559Z" fill="#4A2335"/>
<path d="M111.554 112.302C113.01 112.302 114.05 113.654 114.05 114.798C114.05 116.462 113.01 117.502 111.554 117.502L23.15 116.462V113.654L111.554 112.302ZM101.153 105.607L12.853 112.16L12.75 109.352L100.842 100.407C102.193 100.407 103.338 101.447 103.649 102.799C103.649 104.463 102.609 105.504 101.153 105.607Z" fill="#4A2335"/>
</svg>
