<svg xmlns="http://www.w3.org/2000/svg" viewBox="0 0 128 128"><defs><style>.cls-1{fill:#4a2335;}</style></defs><title>japan-grilled-roll</title><g id="icons"><path class="cls-1" d="M43,79.55V69H27.61C27.61,74,35,79.55,43,79.55Z"/><path class="cls-1" d="M43,115.84c17.21,0,31-9.33,31-20.74V69.18c0-11.41-13.79-20.74-31-20.74-17,0-31,9.33-31,20.74V95.1C12,106.51,26,115.84,43,115.84Zm.16-62.21c14.2,0,25.92,6.95,25.92,15.55S57.36,84.74,43.16,84.74,17.24,77.79,17.24,69.18,29,53.63,43.16,53.63Z"/><path class="cls-1" d="M47.93,59.23c-1.66-.1-3-.42-4.77-.42C37.56,58.82,32.48,61,30,64H43.16Z"/><path class="cls-1" d="M58.78,69.18c0-3.11-1.78-5.81-4.78-7.57V64l-6,5.18v9.75C54,77.48,58.78,73.75,58.78,69.18Z"/><path class="cls-1" d="M89.4,43.45c-1.66-.1-3-.53-4.77-.53C79,42.93,74,45,71.46,48H84.63Z"/><path class="cls-1" d="M95,46.06v2.38l-5,5.18v9.75c6-1.45,10.28-5.18,10.28-9.75C100.28,50.52,98.11,47.83,95,46.06Z"/><path class="cls-1" d="M84.76,32.89c-12.44,0-23.19,4.87-28.37,12.13a21.49,21.49,0,0,1,5.15,1.66c4.46-5.08,13-8.61,23.1-8.61,14.21,0,25.91,6.95,25.91,15.55S98.84,69.18,84.63,69.18a38.61,38.61,0,0,1-5.82-.31,24.37,24.37,0,0,1,.19,5.5V100a34.48,34.48,0,0,0,5.54.31C101.75,100.29,116,91,116,79.55V53.63C116,42.23,102,32.89,84.76,32.89Z"/><path class="cls-1" d="M85,64V53H71.88c2.38,3,4.64,5.92,6,9.65C79.94,63.06,82,64,85,64Z"/><path class="cls-1" d="M51,17V12.16S46,13.8,46,17v4.84S51,19.42,51,17Z"/><path class="cls-1" d="M23.72,47.38c-.17-1.65-.1-4.8,2.59-6.19a8.59,8.59,0,0,0,4.84-7.26s3.68,3.73,4.84,7.26a10.77,10.77,0,0,1,.53,2.7,53.68,53.68,0,0,1,6.85-.44,53.13,53.13,0,0,1,8.54.68,16.86,16.86,0,0,0,3.44-7.78C56,29.24,50.5,21.84,50.5,21.84s-.48,4.69-2.42,7.26c-1.65,2.27-4.84,2.42-4.84,2.42s.63-6.15-2.42-9.68c-4.06-4.69-12.1-7.26-12.1-7.26s2.49,9.79-9.68,16.93c-12.33,7.24-5.89,18.18-3.8,21.15A34,34,0,0,1,23.72,47.38Z"/><path class="cls-1" d="M16.63,26.67s0-2.42,4.84-7.26c2.42-2.42-2.42-7.26-2.42-7.26s0,2.42-4.84,7.26C11.6,22,16.63,26.67,16.63,26.67Z"/></g></svg>